<svg width="1239" height="400" viewBox="0 0 1239 400" fill="none" xmlns="http://www.w3.org/2000/svg">
<path d="M175 218.431C175 175.115 210.115 140 253.431 140C254.298 140 255 140.702 255 141.569V336C255 338.209 253.209 340 251 340H178.922C176.756 340 175 338.244 175 336.078V218.431Z" fill="#191919"/>
<path d="M247 92C247 109.673 232.673 124 215 124C197.327 124 183 109.673 183 92C183 74.3269 197.327 60 215 60C232.673 60 247 74.3269 247 92Z" fill="#191919"/>
<path d="M289.5 340V194.71H349.82V226.32C354.267 215.493 360.84 207.18 369.54 201.38C378.433 195.58 388.97 192.68 401.15 192.68C420.097 192.68 434.79 199.253 445.23 212.4C455.67 225.353 460.89 243.72 460.89 267.5V340H399.7V264.31C399.7 247.103 392.74 238.5 378.82 238.5C370.507 238.5 363.74 241.593 358.52 247.78C353.3 253.773 350.69 261.893 350.69 272.14V340H289.5Z" fill="black"/>
<path d="M549.499 340H488.309V148.89L549.499 139.9V239.37L617.649 183.98L648.969 224.29L608.079 258.51C610.785 272.237 614.749 281.903 619.969 287.51C625.189 292.923 631.955 295.63 640.269 295.63C643.749 295.63 647.905 295.05 652.739 293.89L648.389 340.58C644.715 341.353 641.429 341.837 638.529 342.03C635.629 342.223 632.825 342.32 630.119 342.32C610.979 342.32 595.802 337.777 584.589 328.69C573.569 319.41 565.449 305.877 560.229 288.09L549.499 297.37V340Z" fill="black"/>
<path d="M729.237 342.32C715.511 342.32 704.297 340 695.597 335.36C687.091 330.72 680.904 324.437 677.037 316.51C673.171 308.583 671.237 299.69 671.237 289.83V143.09L732.427 134.1V281.42C732.427 285.867 733.877 289.347 736.777 291.86C739.677 294.18 743.447 295.34 748.087 295.34C752.727 295.34 757.367 294.18 762.007 291.86L766.357 332.17C761.717 335.457 755.821 337.97 748.667 339.71C741.514 341.45 735.037 342.32 729.237 342.32Z" fill="black"/>
<path d="M843.531 342.32C830.191 342.32 818.108 339.13 807.281 332.75C796.455 326.177 787.851 317.187 781.471 305.78C775.285 294.373 772.191 281.323 772.191 266.63C772.191 251.937 775.285 239.08 781.471 228.06C787.851 217.04 796.455 208.437 807.281 202.25C818.108 195.87 830.191 192.68 843.531 192.68C853.005 192.68 862.188 195.29 871.081 200.51C879.975 205.73 886.838 214.333 891.671 226.32V194.71H951.991V340H891.091V313.03C886.451 322.503 880.265 329.753 872.531 334.78C864.798 339.807 855.131 342.32 843.531 342.32ZM862.381 296.5C870.308 296.5 877.075 293.697 882.681 288.09C888.288 282.29 891.091 275.233 891.091 266.92C891.091 258.607 888.288 251.84 882.681 246.62C877.075 241.207 870.308 238.5 862.381 238.5C854.068 238.5 847.108 241.303 841.501 246.91C835.895 252.517 833.091 259.38 833.091 267.5C833.091 275.62 835.895 282.483 841.501 288.09C847.108 293.697 854.068 296.5 862.381 296.5Z" fill="black"/>
<path d="M1043.14 342.32C1029.42 342.32 1018.2 340 1009.5 335.36C1001 330.72 994.809 324.437 990.942 316.51C987.075 308.583 985.142 299.69 985.142 289.83V230.67H966.582V194.71H989.492L1016.46 148.89H1046.33V194.71H1079.97V230.67H1046.33V281.42C1046.33 285.867 1047.78 289.347 1050.68 291.86C1053.58 294.18 1057.35 295.34 1061.99 295.34C1066.63 295.34 1071.27 294.18 1075.91 291.86L1080.26 332.17C1075.62 335.457 1069.73 337.97 1062.57 339.71C1055.42 341.45 1048.94 342.32 1043.14 342.32Z" fill="black"/>
<path d="M1188.52 301.72C1194.12 301.72 1200.02 301.14 1206.21 299.98C1212.59 298.82 1219.06 296.693 1225.64 293.6L1232.6 331.01C1225.44 334.683 1217.61 337.487 1209.11 339.42C1200.79 341.353 1191.22 342.32 1180.4 342.32C1160.87 342.32 1144.44 339.13 1131.1 332.75C1117.95 326.37 1107.99 317.573 1101.23 306.36C1094.46 295.147 1091.08 282.193 1091.08 267.5C1091.08 252.42 1094.65 239.273 1101.81 228.06C1109.15 216.847 1118.92 208.147 1131.1 201.96C1143.28 195.773 1156.71 192.68 1171.41 192.68C1193.25 192.68 1209.98 199.543 1221.58 213.27C1233.18 226.803 1238.98 246.137 1238.98 271.27L1152.56 282.29C1158.94 295.243 1170.92 301.72 1188.52 301.72ZM1147.92 255.61L1193.45 246.04C1192.67 239.853 1190.55 235.31 1187.07 232.41C1183.59 229.317 1179.24 227.77 1174.02 227.77C1166.28 227.77 1160.1 230.477 1155.46 235.89C1151.01 241.11 1148.5 247.683 1147.92 255.61Z" fill="black"/>
</svg>
